<svg width="154" height="126" viewBox="0 0 154 126" fill="none" xmlns="http://www.w3.org/2000/svg">
<circle cx="112" cy="44" r="42" fill="#FAB642"/>
<path d="M141.873 49.8927L74.197 1.30367C72.892 0.366875 71.1191 0.366875 69.8146 1.30367L2.13837 49.8927C0.48535 51.0797 0.126192 53.3558 1.33668 54.9767C2.54716 56.5977 4.86859 56.9493 6.52133 55.7629L72.0055 8.74691L137.49 55.7626C138.15 56.237 138.917 56.4653 139.678 56.4653C140.82 56.4653 141.947 55.9499 142.674 54.9764C143.885 53.3558 143.526 51.0797 141.873 49.8927Z" fill="#0E2D51"/>
<path d="M123.94 56.5859C121.892 56.5859 120.231 58.2145 120.231 60.2235V118.124H90.5549V86.518C90.5549 76.4884 82.2335 68.329 72.0058 68.329C61.7782 68.329 53.4568 76.4889 53.4568 86.518V118.124H23.7808V60.2238C23.7808 58.2148 22.1197 56.5862 20.0712 56.5862C18.0228 56.5862 16.3617 58.2148 16.3617 60.2238V121.762C16.3617 123.771 18.0228 125.399 20.0712 125.399H57.1663C59.1171 125.399 60.7135 123.921 60.8613 122.045C60.8702 121.96 60.8758 121.867 60.8758 121.762V86.5183C60.8758 80.5002 65.8686 75.6043 72.0058 75.6043C78.143 75.6043 83.1358 80.5005 83.1358 86.5183V121.762C83.1358 121.866 83.1414 121.958 83.1503 122.042C83.2964 123.919 84.8934 125.399 86.8453 125.399H123.94C125.989 125.399 127.65 123.771 127.65 121.762V60.2238C127.65 58.2145 125.989 56.5859 123.94 56.5859Z" fill="#0E2D51"/>
</svg>
