<svg width="136" height="134" viewBox="0 0 136 134" fill="none" xmlns="http://www.w3.org/2000/svg">
<circle cx="34" cy="54" r="34" fill="#FAB642"/>
<path d="M39.094 118.875H15.6985V109.6C15.6985 108.156 16.8923 106.986 18.365 106.986H39.094V118.875Z" stroke="#0E2D51" stroke-width="5.22942" stroke-miterlimit="10" stroke-linecap="round" stroke-linejoin="round"/>
<path d="M62.4895 106.986H39.094V118.875H62.4895V106.986Z" stroke="#0E2D51" stroke-width="5.22942" stroke-miterlimit="10" stroke-linecap="round" stroke-linejoin="round"/>
<path d="M85.885 106.986H62.4895V118.875H85.885V106.986Z" stroke="#0E2D51" stroke-width="5.22942" stroke-miterlimit="10" stroke-linecap="round" stroke-linejoin="round"/>
<path d="M109.281 106.986H85.885V118.875H109.281V106.986Z" stroke="#0E2D51" stroke-width="5.22942" stroke-miterlimit="10" stroke-linecap="round" stroke-linejoin="round"/>
<path d="M132.676 118.875H109.281V106.986H130.01C131.483 106.986 132.676 108.156 132.676 109.6V118.875Z" stroke="#0E2D51" stroke-width="5.22942" stroke-miterlimit="10" stroke-linecap="round" stroke-linejoin="round"/>
<path d="M50.8616 119.107H27.4661V130.997H50.8616V119.107Z" stroke="#0E2D51" stroke-width="5.22942" stroke-miterlimit="10" stroke-linecap="round" stroke-linejoin="round"/>
<path d="M74.2566 119.107H50.8611V130.997H74.2566V119.107Z" stroke="#0E2D51" stroke-width="5.22942" stroke-miterlimit="10" stroke-linecap="round" stroke-linejoin="round"/>
<path d="M97.6521 119.107H74.2566V130.997H97.6521V119.107Z" stroke="#0E2D51" stroke-width="5.22942" stroke-miterlimit="10" stroke-linecap="round" stroke-linejoin="round"/>
<path d="M121.048 119.107H97.6521V130.997H121.048V119.107Z" stroke="#0E2D51" stroke-width="5.22942" stroke-miterlimit="10" stroke-linecap="round" stroke-linejoin="round"/>
<path d="M130.01 130.997H121.048V119.107H132.676V128.382C132.676 129.826 131.482 130.997 130.01 130.997Z" stroke="#0E2D51" stroke-width="5.22942" stroke-miterlimit="10" stroke-linecap="round" stroke-linejoin="round"/>
<path d="M27.3269 130.997H18.3649C16.8923 130.997 15.6985 129.826 15.6985 128.382V119.107H27.3269V130.997Z" stroke="#0E2D51" stroke-width="5.22942" stroke-miterlimit="10" stroke-linecap="round" stroke-linejoin="round"/>
<path d="M114.229 27.426V106.306" stroke="#0E2D51" stroke-width="5.22942" stroke-miterlimit="10" stroke-linecap="round" stroke-linejoin="round"/>
<path d="M34.146 106.306V27.426" stroke="#0E2D51" stroke-width="5.22942" stroke-miterlimit="10" stroke-linecap="round" stroke-linejoin="round"/>
<path d="M78.8579 27.426H26.6995C24.685 27.426 23.3475 25.38 24.1888 23.585L33.2779 4.19272C33.7286 3.23103 34.7093 2.61475 35.7887 2.61475H112.586C113.665 2.61475 114.645 3.23103 115.096 4.19272L124.186 23.585C125.027 25.38 123.69 27.426 121.675 27.426H103.154" stroke="#0E2D51" stroke-width="5.22942" stroke-miterlimit="10" stroke-linecap="round" stroke-linejoin="round"/>
<path d="M19.5957 48.8284H128.779" stroke="#0E2D51" stroke-width="5.22942" stroke-miterlimit="10" stroke-linecap="round" stroke-linejoin="round"/>
<path d="M80.5041 89.1702H67.8704C66.4924 89.1702 65.325 88.1745 65.1341 86.8361L62.8604 70.8976C62.6279 69.2678 63.9187 67.8127 65.5967 67.8127H82.7778C84.456 67.8127 85.7466 69.2678 85.5141 70.8976L83.2404 86.8361C83.0495 88.1743 81.8821 89.1702 80.5041 89.1702Z" stroke="#0E2D51" stroke-width="5.22942" stroke-miterlimit="10" stroke-linecap="round" stroke-linejoin="round"/>
<path d="M74.1873 67.3893V50.1194" stroke="#0E2D51" stroke-width="5.22942" stroke-miterlimit="10" stroke-linecap="round" stroke-linejoin="round"/>
</svg>
