<svg width="64" height="64" viewBox="0 0 64 64" fill="none" xmlns="http://www.w3.org/2000/svg">
<path d="M0.25 43.1125C0.25 50.125 5.9375 55.8125 12.95 55.8125C19.9625 55.8125 25.65 50.125 25.65 43.1125C25.65 36.1 19.9625 30.4125 12.95 30.4125C10.85 30.4125 8.9125 30.9625 7.1625 31.8625C9.4125 21.9625 18.275 14.5375 28.85 14.5375C30.6 14.5375 32.025 13.1125 32.025 11.3625C32.025 9.6125 30.6 8.1875 28.85 8.1875C13.075 8.1875 0.25 21.0125 0.25 36.7875V43.1125Z" fill="#0D315B"/>
<path d="M31.975 43.1125C31.975 50.125 37.6625 55.8125 44.675 55.8125C51.6875 55.8125 57.375 50.125 57.375 43.1125C57.375 36.1 51.6875 30.4125 44.675 30.4125C42.575 30.4125 40.6375 30.9625 38.8875 31.8625C41.1375 21.9625 50 14.5375 60.575 14.5375C62.325 14.5375 63.75 13.1125 63.75 11.3625C63.75 9.6125 62.325 8.1875 60.575 8.1875C44.8 8.1875 31.975 21.0125 31.975 36.7875V43.1125Z" fill="#0D315B"/>
</svg>
