<svg width="94" height="91" viewBox="0 0 94 91" fill="none" xmlns="http://www.w3.org/2000/svg">
<mask id="mask0_319_2223" style="mask-type:luminance" maskUnits="userSpaceOnUse" x="0" y="0" width="94" height="91">
<path d="M0.609375 -0.000679016H93.0707V90.666H0.609375V-0.000679016Z" fill="white"/>
</mask>
<g mask="url(#mask0_319_2223)">
<path d="M83.7362 20.869V13.5681C83.7362 12.1378 82.3712 11.0216 80.797 11.1665C76.2994 11.5805 69.3695 11.5709 61.6906 8.99099C55.8086 7.01492 51.4685 4.19611 48.5972 1.92484C47.5899 1.12814 46.0915 1.12814 45.0844 1.92484C42.213 4.19611 37.8729 7.01492 31.991 8.99099C24.312 11.5709 17.3819 11.5805 12.8846 11.1665C11.3102 11.0216 9.94531 12.1378 9.94531 13.5681V41.3045C9.94531 62.787 24.4413 81.2065 45.0735 89.0173C46.2029 89.4448 47.4786 89.4448 48.608 89.0173C69.2402 81.2065 83.7362 62.787 83.7362 41.3045V27.067" stroke="#FAB642" stroke-width="2.96875" stroke-linecap="round" stroke-linejoin="round"/>
<path d="M34.5258 53.3017H29.8145V64.5352" stroke="#FAB642" stroke-width="2.96875" stroke-miterlimit="10" stroke-linecap="round" stroke-linejoin="round"/>
<path d="M29.8145 58.8535H34.1516" stroke="#FAB642" stroke-width="2.96875" stroke-miterlimit="10" stroke-linecap="round" stroke-linejoin="round"/>
<path d="M54.5317 53.3017H49.6426V64.5352H54.5317" stroke="#FAB642" stroke-width="2.96875" stroke-miterlimit="10" stroke-linecap="round" stroke-linejoin="round"/>
<path d="M54.1712 58.9688H49.6426" stroke="#FAB642" stroke-width="2.96875" stroke-miterlimit="10" stroke-linecap="round" stroke-linejoin="round"/>
<path d="M63.8676 53.3017H58.9785V64.5352H63.8676" stroke="#FAB642" stroke-width="2.96875" stroke-miterlimit="10" stroke-linecap="round" stroke-linejoin="round"/>
<path d="M63.5071 58.9688H58.9785" stroke="#FAB642" stroke-width="2.96875" stroke-miterlimit="10" stroke-linecap="round" stroke-linejoin="round"/>
<path d="M40.2773 59.1738L45.1964 64.5352" stroke="#FAB642" stroke-width="2.96875" stroke-miterlimit="10" stroke-linecap="round" stroke-linejoin="round"/>
<path d="M38.8652 53.3017V64.5352" stroke="#FAB642" stroke-width="2.96875" stroke-miterlimit="10" stroke-linecap="round" stroke-linejoin="round"/>
<path d="M45.1964 56.22C45.1964 57.8322 43.7226 59.1394 41.9809 59.1394C41.1171 59.1394 38.8908 59.1523 38.8908 59.1523C38.8908 59.1523 38.8769 57.0327 38.8769 56.22C38.8769 55.5524 38.8691 53.3006 38.8691 53.3006H41.9809C43.7226 53.3006 45.1964 54.6077 45.1964 56.22Z" stroke="#FAB642" stroke-width="2.96875" stroke-miterlimit="10" stroke-linecap="round" stroke-linejoin="round"/>
<path d="M28.418 37.3633L32.7196 26.2881C32.8075 26.0776 33.1116 26.0772 33.2 26.2878L37.4624 37.3633" stroke="#FAB642" stroke-width="2.96875" stroke-miterlimit="10" stroke-linecap="round" stroke-linejoin="round"/>
<path d="M29.7578 34.6055H36.1409" stroke="#FAB642" stroke-width="2.96875" stroke-miterlimit="10" stroke-linecap="round" stroke-linejoin="round"/>
<path d="M64.377 26.1301V37.3538C64.5035 37.3751 68.3884 37.3538 68.3884 37.3538" stroke="#FAB642" stroke-width="2.96875" stroke-miterlimit="10" stroke-linecap="round" stroke-linejoin="round"/>
<path d="M16.1016 26.13V37.3633" stroke="#FAB642" stroke-width="2.96875" stroke-miterlimit="10" stroke-linecap="round" stroke-linejoin="round"/>
<path d="M24.0293 26.13V37.3633" stroke="#FAB642" stroke-width="2.96875" stroke-miterlimit="10" stroke-linecap="round" stroke-linejoin="round"/>
<path d="M16.1016 31.5547H24.029" stroke="#FAB642" stroke-width="2.96875" stroke-miterlimit="10" stroke-linecap="round" stroke-linejoin="round"/>
<path d="M77.5798 26.1306H72.7969V37.3125H77.5798" stroke="#FAB642" stroke-width="2.96875" stroke-miterlimit="10" stroke-linecap="round" stroke-linejoin="round"/>
<path d="M77.2271 31.748H72.7969" stroke="#FAB642" stroke-width="2.96875" stroke-miterlimit="10" stroke-linecap="round" stroke-linejoin="round"/>
<path d="M48.3261 27.2848C48.3261 27.2848 46.2705 25.5904 43.8464 26.3065C41.6207 26.9639 41.3095 29.4806 42.9196 30.51C42.9196 30.51 44.4998 31.2013 46.2524 31.8351C50.4709 33.361 48.6537 37.3633 45.2575 37.3633C43.5569 37.3633 42.1296 36.633 41.2656 35.6982" stroke="#FAB642" stroke-width="2.96875" stroke-miterlimit="10" stroke-linecap="round" stroke-linejoin="round"/>
<path d="M59.5724 27.2848C59.5724 27.2848 57.5167 25.5904 55.0927 26.3065C52.8669 26.9639 52.5556 29.4806 54.1659 30.51C54.1659 30.51 55.7461 31.2013 57.4987 31.8351C61.7172 33.361 59.8999 37.3633 56.5038 37.3633C54.803 37.3633 53.3758 36.633 52.5117 35.6982" stroke="#FAB642" stroke-width="2.96875" stroke-miterlimit="10" stroke-linecap="round" stroke-linejoin="round"/>
<path d="M49.9102 45.332H77.5793" stroke="#FAB642" stroke-width="2.96875" stroke-miterlimit="10" stroke-linecap="round" stroke-linejoin="round"/>
<path d="M16.1016 45.332H43.6561" stroke="#FAB642" stroke-width="2.96875" stroke-miterlimit="10" stroke-linecap="round" stroke-linejoin="round"/>
</g>
</svg>
