<svg width="86" height="84" viewBox="0 0 86 84" fill="none" xmlns="http://www.w3.org/2000/svg">
<mask id="mask0_319_2312" style="mask-type:luminance" maskUnits="userSpaceOnUse" x="0" y="0" width="86" height="84">
<path d="M85.803 0.333984H0.820312V83.6673H85.803V0.333984Z" fill="white"/>
<path d="M43.3122 64.7878C44.2284 64.7878 44.972 65.5169 44.972 66.4154C44.972 67.3138 44.2284 68.043 43.3122 68.043C42.3959 68.043 41.6523 67.3138 41.6523 66.4154C41.6523 65.5169 42.3959 64.7878 43.3122 64.7878Z" fill="white"/>
</mask>
<g mask="url(#mask0_319_2312)">
<mask id="mask1_319_2312" style="mask-type:luminance" maskUnits="userSpaceOnUse" x="0" y="0" width="86" height="84">
<path d="M0.820312 0.334663H85.803V83.668H0.820312V0.334663Z" fill="white"/>
</mask>
<g mask="url(#mask1_319_2312)">
<path d="M43.3122 64.7878C44.2284 64.7878 44.972 65.5169 44.972 66.4154C44.972 67.3138 44.2284 68.043 43.3122 68.043C42.3959 68.043 41.6523 67.3138 41.6523 66.4154C41.6523 65.5169 42.3959 64.7878 43.3122 64.7878Z" fill="#FAB642"/>
<path d="M78.6665 51.7663C78.6665 56.2601 74.9502 59.9043 70.3674 59.9043C65.7847 59.9043 62.0684 56.2601 62.0684 51.7663C62.0684 47.2725 65.7847 43.6283 70.3674 43.6283C74.9502 43.6283 78.6665 47.2725 78.6665 51.7663Z" stroke="#FAB642" stroke-width="3.46354" stroke-miterlimit="10" stroke-linecap="round" stroke-linejoin="round"/>
<path d="M25.054 79.4355H2.48047V76.1803C2.48047 68.9896 8.92389 63.1595 16.257 63.1595C20.7401 63.1595 25.2017 65.3372 27.6051 68.6738" stroke="#FAB642" stroke-width="3.46354" stroke-miterlimit="10" stroke-linecap="round" stroke-linejoin="round"/>
<path d="M59.0195 68.6738C61.4229 65.3372 65.8845 63.1595 70.3677 63.1595C77.7008 63.1595 84.1442 68.9896 84.1442 76.1803V79.4355H61.5707" stroke="#FAB642" stroke-width="3.46354" stroke-miterlimit="10" stroke-linecap="round" stroke-linejoin="round"/>
<path d="M24.5552 51.7663C24.5552 56.2601 20.8388 59.9043 16.2561 59.9043C11.6734 59.9043 7.95703 56.2601 7.95703 51.7663C7.95703 47.2725 11.6734 43.6283 16.2561 43.6283C20.8388 43.6283 24.5552 47.2725 24.5552 51.7663Z" stroke="#FAB642" stroke-width="3.46354" stroke-miterlimit="10" stroke-linecap="round" stroke-linejoin="round"/>
<path d="M54.9308 45.2552C54.9308 51.5475 49.7289 56.6484 43.3121 56.6484C36.8952 56.6484 31.6934 51.5475 31.6934 45.2552C31.6934 38.9629 36.8952 33.862 43.3121 33.862C49.7289 33.862 54.9308 38.9629 54.9308 45.2552Z" stroke="#FAB642" stroke-width="3.46354" stroke-miterlimit="10" stroke-linecap="round" stroke-linejoin="round"/>
<path d="M43.2518 4.56544L39.6616 11.7643L31.6348 12.9069L37.4441 18.4587L36.0731 26.2988L43.2518 22.5977C45.949 23.9876 47.8115 24.9479 50.4323 26.2988L49.0595 18.4587L54.8689 12.9069L46.842 11.7643L43.2518 4.56544Z" stroke="#FAB642" stroke-width="3.46354" stroke-miterlimit="10" stroke-linecap="round" stroke-linejoin="round"/>
<path d="M71.4095 32.0052L76.5201 34.6387L75.5442 29.0592L79.6786 25.1058L73.964 24.292L71.4095 19.2139L68.8534 24.292L63.1387 25.1058L67.2733 29.0592L66.2973 34.6387L71.4095 32.0052Z" stroke="#FAB642" stroke-width="3.46354" stroke-miterlimit="10" stroke-linecap="round" stroke-linejoin="round"/>
<path d="M14.976 32.0052L20.0865 34.6387L19.1106 29.0592L23.2452 25.1058L17.5304 24.292L14.976 19.2139L12.4198 24.292L6.70508 25.1058L10.8397 29.0592L9.86371 34.6387L14.976 32.0052Z" stroke="#FAB642" stroke-width="3.46354" stroke-miterlimit="10" stroke-linecap="round" stroke-linejoin="round"/>
<path d="M61.5707 79.4355H25.0547V77.8079C25.0547 74.4714 25.9858 71.348 27.6058 68.6738C30.7894 63.4232 36.6319 59.9043 43.3127 59.9043C48.3552 59.9043 52.9197 61.9079 56.2227 65.1484C57.2966 66.2015 58.2378 67.3848 59.0195 68.6738C60.6395 71.348 61.5707 74.4714 61.5707 77.8079V79.4355Z" stroke="#FAB642" stroke-width="3.46354" stroke-miterlimit="10" stroke-linecap="round" stroke-linejoin="round"/>
<path d="M49.6738 68.279C51.4498 69.4232 52.8889 71.0313 53.8084 72.9258" stroke="#FAB642" stroke-width="3.46354" stroke-miterlimit="10" stroke-linecap="round" stroke-linejoin="round"/>
</g>
</g>
</svg>
