<svg width="191" height="169" viewBox="0 0 191 169" fill="none" xmlns="http://www.w3.org/2000/svg">
<circle cx="42" cy="127" r="42" fill="#FAB642"/>
<path d="M38.1189 149.705H187.246" stroke="#0E2D51" stroke-width="5.94442" stroke-miterlimit="10" stroke-linecap="round" stroke-linejoin="round"/>
<path d="M77.6841 139.259C77.6841 145.028 72.9151 149.704 67.0322 149.704C61.1493 149.704 56.3802 145.028 56.3802 139.259C56.3802 133.49 67.0322 122.845 67.0322 122.845C67.0322 122.845 77.6841 133.49 77.6841 139.259Z" stroke="#0E2D51" stroke-width="5.94442" stroke-miterlimit="10" stroke-linecap="round" stroke-linejoin="round"/>
<path d="M123.335 139.259C123.335 145.028 118.566 149.704 112.683 149.704C106.8 149.704 102.031 145.028 102.031 139.259C102.031 133.49 112.683 122.845 112.683 122.845C112.683 122.845 123.335 133.49 123.335 139.259Z" stroke="#0E2D51" stroke-width="5.94442" stroke-miterlimit="10" stroke-linecap="round" stroke-linejoin="round"/>
<path d="M168.986 139.259C168.986 145.028 164.217 149.704 158.334 149.704C152.451 149.704 147.682 145.028 147.682 139.259C147.682 133.49 158.334 122.845 158.334 122.845C158.334 122.845 168.986 133.49 168.986 139.259Z" stroke="#0E2D51" stroke-width="5.94442" stroke-miterlimit="10" stroke-linecap="round" stroke-linejoin="round"/>
<path d="M153.769 110.908H71.5973C61.5124 110.908 53.3368 102.891 53.3368 93.0018V42.2683H172.03V93.0021C172.03 102.891 163.854 110.908 153.769 110.908Z" stroke="#0E2D51" stroke-width="5.94442" stroke-miterlimit="10" stroke-linecap="round" stroke-linejoin="round"/>
<path d="M53.3359 42.2683H38.1189V57.19H53.3359V42.2683Z" stroke="#0E2D51" stroke-width="5.94442" stroke-miterlimit="10" stroke-linecap="round" stroke-linejoin="round"/>
<path d="M187.246 42.2683H172.029V57.2896H187.246V42.2683Z" stroke="#0E2D51" stroke-width="5.94442" stroke-miterlimit="10" stroke-linecap="round" stroke-linejoin="round"/>
<path d="M76.8782 41.8074C79.9752 40.5246 81.4602 37.0085 80.195 33.9542C78.9298 30.8998 75.3936 29.4637 72.2966 30.7465C69.1996 32.0294 67.7146 35.5454 68.9798 38.5998C70.245 41.6541 73.7812 43.0902 76.8782 41.8074Z" stroke="#0E2D51" stroke-width="5.94442" stroke-miterlimit="10" stroke-linecap="round" stroke-linejoin="round"/>
<path d="M98.2753 20.9231C101.381 19.6615 102.856 16.1699 101.57 13.1243C100.283 10.0787 96.7223 8.63241 93.6164 9.89397C90.5105 11.1555 89.0356 14.6472 90.3221 17.6928C91.6087 20.7384 95.1694 22.1847 98.2753 20.9231Z" stroke="#0E2D51" stroke-width="5.94442" stroke-miterlimit="10" stroke-linecap="round" stroke-linejoin="round"/>
<path d="M153.058 41.813C156.164 40.5514 157.639 37.0598 156.352 34.0142C155.066 30.9686 151.505 29.5223 148.399 30.7839C145.293 32.0454 143.818 35.5371 145.105 38.5827C146.391 41.6283 149.952 43.0746 153.058 41.813Z" stroke="#0E2D51" stroke-width="5.94442" stroke-miterlimit="10" stroke-linecap="round" stroke-linejoin="round"/>
<path d="M130.682 13.6615C133.059 11.3305 133.059 7.55132 130.682 5.22039C128.305 2.88945 124.451 2.88945 122.074 5.22039C119.697 7.55132 119.697 11.3305 122.074 13.6615C124.451 15.9924 128.305 15.9924 130.682 13.6615Z" stroke="#0E2D51" stroke-width="5.94442" stroke-miterlimit="10" stroke-linecap="round" stroke-linejoin="round"/>
</svg>
