<svg width="102" height="82" viewBox="0 0 102 82" fill="none" xmlns="http://www.w3.org/2000/svg">
<path d="M77.0847 24.4249C76.3199 23.6692 75.0753 23.6642 74.3044 24.4139C73.5338 25.1638 73.5287 26.3845 74.2934 27.1404L74.3052 27.1523C74.688 27.5308 75.1897 27.7193 75.692 27.7193C76.1929 27.7193 76.6946 27.5315 77.0796 27.1572C77.8504 26.4072 77.8494 25.1808 77.0847 24.4249Z" fill="#FAB642"/>
<path d="M100.726 47.6078L82.4669 29.7029C81.6992 28.9503 80.4543 28.9503 79.6864 29.7029C78.9187 30.4557 78.9187 31.6764 79.6864 32.4294L94.1817 46.6432H59.6155C56.748 46.6432 54.4154 44.3557 54.4154 41.544V7.64882L68.4096 21.3712C69.1773 22.1238 70.4221 22.1238 71.19 21.3712C71.9577 20.6184 71.9577 19.3977 71.19 18.6447L53.4317 1.2312C52.664 0.478596 51.4191 0.478596 50.6514 1.2312L19.3104 31.9646C18.5427 32.7174 18.5427 33.9381 19.3104 34.6911L66.6049 81.0675C66.9735 81.429 67.4736 81.6322 67.995 81.6322C68.5163 81.6322 69.0165 81.429 69.3851 81.0675L100.726 50.3343C101.095 49.9727 101.302 49.4824 101.302 48.9712C101.302 48.4599 101.095 47.9695 100.726 47.6078ZM50.4839 6.84859V31.4001H25.4465L50.4839 6.84859ZM66.029 75.0501L25.4465 35.2555H50.4839V41.544C50.4839 46.4816 54.5806 50.4988 59.6159 50.4988H66.029V75.0501ZM69.9607 75.0503V50.4988H94.998L69.9607 75.0503Z" fill="#FAB642"/>
<path d="M14.138 40.7637H2.61145C1.52566 40.7637 0.645508 41.6269 0.645508 42.6915C0.645508 43.756 1.52566 44.6193 2.61145 44.6193H14.138C15.2238 44.6193 16.1039 43.7562 16.1039 42.6915C16.1039 41.6269 15.2238 40.7637 14.138 40.7637Z" fill="#FAB642"/>
<path d="M19.9998 40.7637H19.9703C18.8845 40.7637 18.0044 41.6269 18.0044 42.6915C18.0044 43.756 18.8845 44.6193 19.9703 44.6193H19.9998C21.0856 44.6193 21.9658 43.756 21.9658 42.6915C21.9658 41.6269 21.0856 40.7637 19.9998 40.7637Z" fill="#FAB642"/>
<path d="M8.90526 20.5226H2.61365C1.52786 20.5226 0.647705 21.3858 0.647705 22.4504C0.647705 23.5149 1.52786 24.3782 2.61365 24.3782H8.90526C9.99105 24.3782 10.8712 23.5149 10.8712 22.4504C10.8712 21.3858 9.99105 20.5226 8.90526 20.5226Z" fill="#FAB642"/>
<path d="M22.7645 20.5226H15.3278C14.242 20.5226 13.3618 21.3858 13.3618 22.4504C13.3618 23.5149 14.242 24.3782 15.3278 24.3782H22.7645C23.8503 24.3782 24.7305 23.5149 24.7305 22.4504C24.7305 21.3858 23.8503 20.5226 22.7645 20.5226Z" fill="#FAB642"/>
<path d="M27.0448 51.3665H16.0358C14.95 51.3665 14.0698 52.2297 14.0698 53.2942C14.0698 54.3588 14.95 55.222 16.0358 55.222H27.0448C28.1306 55.222 29.0108 54.3588 29.0108 53.2942C29.0108 52.2297 28.1304 51.3665 27.0448 51.3665Z" fill="#FAB642"/>
<path d="M35.6411 63.7039H7.92151C6.83572 63.7039 5.95557 64.5671 5.95557 65.6316C5.95557 66.6962 6.83572 67.5594 7.92151 67.5594H35.6411C36.7269 67.5594 37.607 66.6962 37.607 65.6316C37.607 64.5671 36.7269 63.7039 35.6411 63.7039Z" fill="#FAB642"/>
</svg>
