<svg width="84" height="82" viewBox="0 0 84 82" fill="none" xmlns="http://www.w3.org/2000/svg">
<path d="M82.7259 47.6071L64.4666 29.7022C63.6989 28.9496 62.4541 28.9496 61.6862 29.7022C60.9185 30.455 60.9185 31.6757 61.6862 32.4287L76.1815 46.6424H41.6153C38.7478 46.6424 36.4152 44.3549 36.4152 41.5432V7.64808L50.4094 21.3705C51.1771 22.1231 52.4219 22.1231 53.1898 21.3705C53.9575 20.6177 53.9575 19.397 53.1898 18.644L35.4314 1.23047C34.6637 0.477863 33.4189 0.477863 32.6512 1.23047L1.31015 31.9639C0.54245 32.7167 0.54245 33.9373 1.31015 34.6903L48.6046 81.0668C48.9732 81.4282 49.4734 81.6314 49.9947 81.6314C50.5161 81.6314 51.0162 81.4282 51.3848 81.0668L82.7261 50.3336C83.0947 49.9719 83.3019 49.4817 83.3019 48.9704C83.3017 48.4592 83.0945 47.9688 82.7259 47.6071ZM32.4837 6.84786V31.3994H7.44625L32.4837 6.84786ZM48.0288 75.0494L7.44625 35.2548H32.4837V41.5432C32.4837 46.4809 36.5803 50.498 41.6157 50.498H48.0288V75.0494ZM51.9605 75.0496V50.498H76.9977L51.9605 75.0496Z" fill="#FAB642"/>
</svg>
